<?xml version="1.0" encoding="UTF-8" standalone="no"?> <!-- Created with Vectornator for iOS (http://vectornator.io/) --><!DOCTYPE svg PUBLIC "-//W3C//DTD SVG 1.1//EN" "http://www.w3.org/Graphics/SVG/1.1/DTD/svg11.dtd">
<svg style="fill-rule:evenodd;clip-rule:evenodd;stroke-linecap:round;stroke-linejoin:round;" xmlns:vectornator="http://vectornator.io" xmlns:xlink="http://www.w3.org/1999/xlink" xmlns="http://www.w3.org/2000/svg" xml:space="preserve" version="1.1" viewBox="0 0 1024 1024">
<metadata>
<vectornator:setting key="DisplayWhiteBackground" value="0"/>
<vectornator:setting key="RulersVisible" value="1"/>
<vectornator:setting key="SnapToEdges" value="0"/>
<vectornator:setting key="Units" value="Pixels"/>
<vectornator:setting key="DynamicGuides" value="0"/>
<vectornator:setting key="SnapToPoints" value="0"/>
<vectornator:setting key="SnapToGrid" value="0"/>
<vectornator:setting key="SnapToGuides" value="0"/>
<vectornator:setting key="ShowGrid" value="1"/>
<vectornator:setting key="GridSpacing" value="14.17500019073486"/>
</metadata>
<defs/>
<g id="Layer 2" vectornator:layerName="Layer 2" visibility="hidden">
<path stroke="#5b2316" stroke-width="1" d="M404.713+526.843C404.713+467.196+453.066+418.843+512.713+418.843C572.36+418.843+620.713+467.196+620.713+526.843C620.713+586.489+572.36+634.843+512.713+634.843C453.066+634.843+404.713+586.489+404.713+526.843Z" fill="#5b2316" stroke-linecap="round" opacity="1" stroke-linejoin="round"/>
<path stroke="#5b2316" stroke-width="1" d="M511+0L512+0L512+50L511+50L511+0Z" fill="#5b2316" stroke-linecap="round" opacity="1" stroke-linejoin="round"/>
</g>
<g id="Layer 1" vectornator:layerName="Layer 1">
<g opacity="1">
<path stroke="#5b2316" stroke-width="1" d="M721.927+659.495C717.179+656.284+717.179+656.284+712.43+653.072C716.176+645.758+721.665+639.1+723.669+631.13C725.326+624.539+714.37+625.59+697.367+624.055C698.833+630.014+698.833+630.014+700.298+635.973C680.381+634.665+683.705+619.533+681.849+603.319C671.101+603.954+669.263+604.074+658.515+604.708C662.181+611.507+664.84+617.851+665.791+625.516C666.322+629.789+663.713+631.589+661.336+635.18C663.976+635.267+664.567+637.196+667.206+637.283C660.475+646.932+679.895+660.289+687.417+664.312C697.659+669.789+711.599+664.809+721.927+659.495Z" fill="#5b2316" stroke-linecap="round" opacity="1" stroke-linejoin="round"/>
<path stroke="#e2c557" stroke-width="1" d="M366.901+206.431C371.506+185.464+378.406+163.762+384.962+144.347C391.518+124.932+402.38+108.266+413.215+91.0062C423.027+75.3763+434.902+61.0299+448.011+47.8168C461.119+34.6037+475.461+22.5237+490.206+11.4265C493.692+8.80301+498.042+9.13522+502.608+10.2063C507.174+11.2775+511.957+13.0875+516.307+13.4197L515.603+7.0533L514.923+0.881367C508.72-0.289421+505.6+2.25796+498.751+4.71922C491.902+7.18048+480.911+13.4131+475.347+17.9737C462.352+28.626+449.007+39.461+436.831+51.2821C424.654+63.1033+413.646+75.9105+405.322+90.5071C395.405+107.896+386.701+123.895+381.559+143.382C376.418+162.868+370.533+185.624+366.901+206.431Z" fill="#e2c557" stroke-linecap="round" opacity="1" stroke-linejoin="round"/>
<path stroke="#d9aa22" stroke-width="1" d="M592.67+556.507C592.56+554.311+592.193+552.133+591.489+550.006C578.912+512.037+536.805+489.724+520.705+453.11C499.16+404.111+487.595+357.368+474.196+305.546C473.4+302.909+472.97+299.736+472.723+296.33L476.393+295.207C468.039+249.424+473.953+230.025+476.805+175.035C478.359+145.084+498.367+118.587+502.955+88.9485C503.899+82.8471+507.814+65.286+523.145+56.9173C527.963+42.7782+535.045+42.5707+534.388+28.6567C534.295+26.669+534.042+24.3908+533.603+21.7635C533.301+19.9579+532.835+18.2539+532.23+16.6543C527.997+5.45735+517.067-0.438552+509.434+2.18363C481.609+11.743+458.263+36.0036+437.811+58.4477C417.069+81.2096+399.48+107.573+387.52+135.951C373.511+169.191+364.775+203.541+364.003+239.604C363.621+257.441+362.749+286.468+362.749+286.468C362.14+323.285+364.499+365.925+374.709+404.901C389.162+460.081+414.464+500.523+438.332+530.074C453.773+549.192+468.6+563.751+479.503+574.797C493.208+588.683+510.749+600.015+529.591+605.078C542.427+608.527+559.055+607.662+568.984+598.825C580.697+588.401+593.439+571.875+592.67+556.507Z" fill="#d9aa22" stroke-linecap="round" opacity="1" stroke-linejoin="round"/>
<path stroke="#eed133" stroke-width="1" d="M609.667+570.909C604.488+549.06+603.844+525.596+594.118+505.357C578.116+472.057+543.966+448.016+533.504+412.583C520.455+368.392+516.023+331.245+514.075+287.649L513.788+283.773C509.917+266.319+507.424+247.674+508.369+232.714C512.189+172.246+517.099+90.0984+534.24+34.8983C524.287+39.6864+501.583+56.6436+495.943+66.1398C485.478+83.7591+483.86+105.58+481.748+125.964C478.714+155.258+468.391+188.167+469.382+217.601C470.318+245.414+472.991+286.889+472.991+286.889C473.94+303.315+474.619+326.138+478.971+343.217C488.231+379.967+488.186+372.371+498.928+408.716C505.772+431.872+522.035+456.458+534.208+477.312C554.907+512.776+585.401+537.783+609.667+570.909Z" fill="#eed133" stroke-linecap="round" opacity="1" stroke-linejoin="round"/>
<path stroke="#f2e499" stroke-width="1" d="M609.309+561.442C602.533+539.15+603.831+522.034+592.118+500.617C580.405+479.2+553.971+451.443+544.252+429.072C537.682+413.952+531.657+398.482+526.611+382.722C521.565+366.961+521.644+351.023+518.93+334.762C516.309+319.062+515.356+306.822+515.548+290.856C515.552+290.482+513.757+273.455+513.759+273.078L513.619+273.286C512.224+257.179+512.371+241.007+512.946+224.82C513.533+208.292+513.607+175.216+513.778+158.704C512.243+173.26+509.561+204.449+506.983+219.044C504.404+233.639+505.57+247.948+505.494+262.584C505.462+268.672+505.796+278.857+506.538+286.901C506.58+288.485+506.618+290.087+506.618+290.172C506.558+319.918+509.156+346.853+516.989+375.238C526.153+408.446+541.997+439.015+559.527+468.941C577.057+498.867+593.452+530.86+609.309+561.442Z" fill="#f2e499" stroke-linecap="round" opacity="1" stroke-linejoin="round"/>
<path stroke="#e4c038" stroke-width="1" d="M621.05+612.679C594.982+613.494+547.514+613.419+522.457+606.183C504.387+600.965+486.761+592.172+472.561+579.84C452.268+562.217+434.588+541.072+420.867+517.961C406.38+493.561+359.516+422.812+362.637+289.048C366.042+437.796+423.93+503.782+440.81+529.966C453.882+550.242+471.606+563.334+490.196+578.709C503.979+590.109+507.833+595.077+525.097+599.751C549.667+606.403+596.151+607.391+621.05+612.679Z" fill="#e4c038" stroke-linecap="round" opacity="1" stroke-linejoin="round"/>
<path stroke="#ca9120" stroke-width="1" d="M560.428+604.902C576.453+607.298+593.305+606.469+608.502+612.089C629.477+619.844+652.106+636.767+671.701+647.543C668.673+627.487+664.259+624.36+661.231+604.305C671.54+603.812+668.869+608.821+679.178+608.328C685.017+624.205+681.332+627.307+691.722+639.714C697.648+638.574+707.992+626.841+717.51+625.941C702.251+616.902+699.662+613.77+684.404+604.731C686.624+600.269+686.773+600.737+688.993+596.274C671.864+594.15+651.103+596.442+638.208+584.967C627.379+575.331+616.491+561.506+606.725+550.793C604.608+561.638+608.344+555.104+606.227+565.949C596.082+553.826+597.906+560.232+591.133+545.947C586.341+569.537+583.209+566.516+578.416+590.106C566.954+591.768+570.086+594.789+558.624+596.451C563.921+597.514+563.921+597.514+569.219+598.577C564.824+601.74+564.824+601.74+560.428+604.902Z" fill="#ca9120" stroke-linecap="round" opacity="1" stroke-linejoin="round"/>
<path stroke="#5b2316" stroke-width="1" d="M504.128+2.41383C502.019+3.231+516.25+3.96255+515.835+4.54723C514.906+5.84502+515.295+4.53771+512.373+8.85878C509.955+12.4326+508.198+11.7005+518.01+16.3014C519.259+16.9862+520.311+11.9221+521.332+12.4591C532.933+17.5555+526.922+20.1547+524.794+26.2412C524.416+27.0765+536.3+39.2162+533.96+33.5206C533.511+32.6334+531.218+32.0309+531.9+30.162C532.39+28.8175+532.953+28.7468+534.065+28.0591C535.488+27.2152+530.735+23.9719+531.331+23.6141C537.439+19.3154+529.343+10.1928+525.727+6.16195C522.902+3.01424+516.868+0.622006+512.348+0.452099C508.988+0.325773+507.285+1.32516+504.128+2.41383Z" fill="#5b2316" stroke-linecap="round" opacity="1" stroke-linejoin="round"/>
</g>
</g>
</svg>
