<?xml version="1.0" encoding="UTF-8" standalone="no"?> <!-- Created with Vectornator for iOS (http://vectornator.io/) --><!DOCTYPE svg PUBLIC "-//W3C//DTD SVG 1.1//EN" "http://www.w3.org/Graphics/SVG/1.1/DTD/svg11.dtd">
<svg style="fill-rule:evenodd;clip-rule:evenodd;stroke-linecap:round;stroke-linejoin:round;" xmlns:vectornator="http://vectornator.io" xmlns:xlink="http://www.w3.org/1999/xlink" xmlns="http://www.w3.org/2000/svg" xml:space="preserve" version="1.1" viewBox="0 0 1024 1024">
<metadata>
<vectornator:setting key="DisplayWhiteBackground" value="0"/>
<vectornator:setting key="RulersVisible" value="1"/>
<vectornator:setting key="SnapToEdges" value="1"/>
<vectornator:setting key="Units" value="Pixels"/>
<vectornator:setting key="DynamicGuides" value="1"/>
<vectornator:setting key="SnapToPoints" value="0"/>
<vectornator:setting key="CMYKEnabledKey" value="0"/>
<vectornator:setting key="SnapToGrid" value="0"/>
<vectornator:setting key="SnapToGuides" value="1"/>
<vectornator:setting key="ShowGrid" value="1"/>
<vectornator:setting key="GridSpacing" value="14.17500019073486"/>
</metadata>
<defs/>
<g id="Layer 1" vectornator:layerName="Layer 1">
<path stroke="#5b2316" stroke-width="1" d="M513+101.854L512+101.854L513+101.854Z" fill="#5b2316" stroke-linecap="round" opacity="1" stroke-linejoin="round"/>
</g>
<g id="Editing" vectornator:layerName="Editing">
<g opacity="1">
<path stroke="#cc0401" stroke-width="1" d="M597.584+48.1967C595.605+43.7842+593.89+41.3349+587.107+30.5901C580.324+19.8454+573.454+13.2629+562.875+5.65464C552.296-1.95359+554.767+0.585506+544.791+0.157235C534.815-0.271037+531.881-0.0684034+522.971+3.94155C514.06+7.9515+503.602+7.83752+500.357+15.5283C497.111+23.2191+501.457+25.0711+499.903+30.1953C498.35+35.3194+490.854+28.0336+490.475+29.6636C490.095+31.2936+495.934+36.68+494.35+38.3472C492.766+40.0143+488.952+35.3323+485.67+37.8923C482.388+40.4523+482.745+43.2177+478.703+43.2997C477.814+43.3178+469.242+37.8936+457.179+44.4197C445.115+50.9459+453.177+72.2422+447.089+77.5696C432.573+90.2721+440.813+94.7898+437.279+102.275C434.684+107.771+425.606+107.515+421.272+119.736C416.938+131.956+419.336+142.845+419.942+151.157C421.107+167.135+435.662+174.591+435.854+175.34C436.571+178.124+439.671+182.269+443.513+184.581C444.759+185.332+446.909+196.495+464.494+206.695C475.39+213.015+495.904+207.411+511.052+210.922C526.161+214.423+550.283+219.766+565.385+218.611C585.989+217.036+596.076+209.206+597.995+208.56C605.007+206.2+618.183+202.422+620.984+199.345C623.924+196.114+638.428+176.874+639.302+166.841C639.819+160.918+640.653+155.159+639.131+142.38C637.952+132.477+634.59+119.867+630.742+108.871C626.404+96.4779+621.424+88.16+616.019+78.0434C607.89+62.8301+603.007+60.2839+597.584+48.1967Z" fill="#cc0401" stroke-linecap="round" opacity="1" stroke-linejoin="round"/>
<path stroke="#e91707" stroke-width="1" d="M386.242+163.348C388.319+177.576+388.562+175.436+394.739+188.294C400.917+201.152+416.683+214.015+425.329+215.089C433.974+216.162+424.503+199.485+430.238+194.577C435.974+189.669+435.44+191.253+437.98+194.207C440.52+197.162+443.003+203.739+445.155+203.447C447.307+203.154+466.586+190.947+464.793+184.044C463+177.141+446.565+183.91+443.645+176.837C440.724+169.765+441.641+165.469+439.25+162.486C436.859+159.503+428.992+166.663+425.229+161.176C421.465+155.69+422.493+148.886+424.196+140.541C425.9+132.197+433.228+137.788+434.204+133.412C435.179+129.036+434.562+124.364+431.749+123.988C428.935+123.611+418.36+130.621+420.788+126.292C423.217+121.963+432.469+116.583+437.813+105.72C443.156+94.8566+439.898+87.4901+442.162+82.8398C444.426+78.1895+445.631+88.5057+446.867+87.1185C448.104+85.7313+443.81+78.9881+447.106+77.2909C450.403+75.5937+458.09+84.1617+460.054+80.3295C462.018+76.4974+462.584+65.0124+459.556+63.0535C456.529+61.0947+454.739+73.965+452.536+73.5853C451.953+73.4848+447.115+64.4119+455.86+54.2164C459.538+49.9294+466.394+45.5358+475.143+42.1708C476.162+41.7789+476.534+42.0801+477.667+43.3495C478.8+44.6189+481.547+43.1283+482.084+42.102C483.117+40.1262+487.062+40.7212+487.265+38.8945C487.486+36.9123+490.942+36.8847+493.365+38.9018C494.128+39.5371+494.867+37.6396+495.2+36.8465C495.874+35.2376+491.655+32.4192+492.85+31.8934C494.813+31.0293+495.604+30.6197+497.281+32.9912C498.441+34.6331+507.091+29.9322+508.709+28.8129C516.779+23.2317+514.774+10.5665+514.884+8.31589C515.002+5.88233+495.054+10.2942+489.282+12.3581C483.51+14.422+477.183+15.0737+471.079+14.7479C461.947+14.2604+449.878+12.1408+440.443+22.7862C436.678+27.0348+425.261+38.393+419.264+51.9866C413.792+64.3911+411.905+71.297+406.784+79.1698C397.67+93.1809+394.424+113.136+390.396+122.694C380.976+145.05+384.165+149.119+386.242+163.348Z" fill="#e91707" stroke-linecap="round" opacity="1" stroke-linejoin="round"/>
<path stroke="#f33b31" stroke-width="1" d="M414.355+196.469C409.897+196.977+413.093+203.123+416.413+207.413C419.733+211.702+426.669+216.947+438.51+219.751C450.351+222.556+455.935+221.731+467.709+224.26C479.482+226.789+471.254+228.865+485.604+229.867C499.955+230.869+510.836+227.756+526.216+228.677C541.595+229.598+533.723+234.458+545.835+234.528C557.948+234.599+564.274+232.88+576.272+226.1C578.849+224.643+586.296+219.732+592.393+218.612C596.399+217.877+599.816+216.277+604.428+213.532C612.537+208.704+616.657+205.909+618.758+203.031C629.626+188.141+615.026+197.924+611.354+198.894C607.228+199.985+604.612+200.409+601.518+199.615C596.887+198.428+572.019+199.988+563.71+199.702C555.4+199.416+567.1+190.668+565.156+188.564C563.212+186.46+558.306+185.345+556.214+188.563C554.122+191.78+543.674+193.981+546.687+197.856C549.699+201.73+559.555+205.407+559.19+208.676C558.825+211.945+558.957+212.544+549.367+211.886C539.777+211.227+538.545+205.589+529.625+204.15C520.704+202.71+520.45+208.611+514.627+209.707C508.804+210.803+506.911+210.714+506.333+208.533C505.756+206.352+515.531+203.095+515.531+203.095C515.531+203.095+511.646+204.969+510.032+201.457C508.418+197.945+513.468+189.077+509.075+189.047C504.682+189.018+498.407+199.491+492.458+201.34C486.508+203.188+489.64+196.674+485.277+196.441C480.913+196.207+476.496+197.352+475.004+200.404C473.511+203.456+480.194+208.069+479.306+208.648C478.418+209.228+475.039+203.379+471.452+202.722C467.866+202.064+466.217+206.969+464.962+206.02C463.706+205.07+470.152+203.215+464.384+198.059C458.615+192.902+447.546+190.552+441.888+185.394C436.231+180.236+446.345+179.984+443.801+178.292C441.258+176.599+423.123+177.695+422.765+181.848C422.406+186.002+429.585+195.21+428.333+197.789C427.081+200.367+418.814+195.961+414.355+196.469Z" fill="#f33b31" stroke-linecap="round" opacity="1" stroke-linejoin="round"/>
<path stroke="#5a7a04" stroke-width="1" d="M502.936+269.748C504.729+273.531+505.749+277.768+508.316+281.096C509.183+282.221+511.992+281.597+513.387+281.948C513.865+275.318+512.924+268.832+513.935+262.26C514.069+261.387+515.96+261.264+515.848+260.388C515.311+256.226+513.377+252.354+512.142+248.338C508.927+248.53+505.376+248.097+502.697+246.349C503.071+254.461+504.036+262.951+501.502+270.684C500.356+265.609+491.834+267.152+488.021+267.323C486.154+261.867+486.154+261.867+484.286+256.41C483.031+257.522+483.031+257.522+481.776+258.633C482.314+259.277+482.314+259.277+482.852+259.92C483.509+259.277+483.509+259.277+484.167+258.633C483.25+262.051+479.886+260.541+482.859+263.103C476.42+263.629+481.884+270.909+475.201+271.152C475.597+272.36+475.597+272.36+475.993+273.569C474.307+272.953+473.695+270.668+473.407+268.929C468.067+270.854+466.96+271.273+472.212+273.843C471.614+276.065+471.614+276.065+471.016+278.288C469.343+277.937+469.343+277.937+467.669+277.586C467.37+278.23+467.37+278.23+467.071+278.873C466.952+277.82+466.952+277.82+466.832+276.767C465.483+276.833+465.483+276.833+464.133+276.898C460.309+266.622+463.133+260.529+468.147+251.496C467.031+252.159+465.203+252.27+464.8+253.485C462.831+259.417+461.281+265.656+461.377+271.892C461.445+276.242+463.978+280.212+465.278+284.372C470.102+280.757+470.102+280.757+474.926+277.141C476.319+278.3+476.319+278.3+477.711+279.458C478.309+278.171+478.309+278.171+478.907+276.884C479.684+277.645+479.684+277.645+480.461+278.405C482.235+272.66+482.235+272.66+484.009+266.915C489.732+268.935+495.691+270.514+501.741+271.152C502.36+271.217+502.538+270.216+502.936+269.748Z" fill="#5a7a04" stroke-linecap="round" opacity="1" stroke-linejoin="round"/>
<path stroke="#344c02" stroke-width="1" d="M502.115+231.597C505.425+245.142+504.522+258.274+501.502+270.684C497.008+269.563+491.559+270.256+488.021+267.323C487.34+266.758+486.809+266.078+486.381+265.321C484.932+262.757+484.663+259.316+483.702+256.508C485.687+262.456+485.252+265.258+482.392+267.985C479.066+271.158+477.022+273.527+472.629+273.232C473.719+276.805+471.967+276.177+470.824+279.357C467.382+278.662+467.575+277.593+464.133+276.898C462.099+271.76+461.17+261.713+464.713+255.463C469.908+246.301+478.642+235.842+486.522+228.748C493.868+230.965+496.16+237.957+502.115+231.597Z" fill="#344c02" stroke-linecap="round" opacity="1" stroke-linejoin="round"/>
<path stroke="#815c08" stroke-width="1" d="M519.554+238.159C519.733+235.468+519.733+235.468+519.912+232.777C521.83+235.377+522.679+238.714+523.021+241.903C524.022+238.404+522.843+239.177+525.651+238.627C526.129+239.68+526.129+239.68+526.607+240.733C527.922+239.329+527.922+239.329+529.237+237.925C531.956+240.074+534.573+241.277+535.95+244.42C535.232+244.771+535.812+245.647+535.095+245.998C536.37+247.792+537.262+249.916+538.921+251.38C539.819+252.172+541.769+251.414+542.388+252.432C543.953+255.01+543.318+258.495+544.825+261.105C545.538+262.337+547.345+262.499+548.604+263.196C545.46+253.53+539.801+244.633+533.421+236.638C531.914+234.75+529.22+234.177+527.119+232.946C528.238+231.867+528.238+231.867+529.357+230.788C528.202+229.78+528.616+229.893+527.462+228.885C526.42+228.416+521.403+227.158+519.49+227.158C519.729+232.715+519.315+232.602+519.554+238.159Z" fill="#815c08" stroke-linecap="round" opacity="1" stroke-linejoin="round"/>
<path stroke="#76800f" stroke-width="1" d="M552.43+271.386C552.47+270.801+553.036+269.972+552.549+269.631C547.171+265.861+540.55+263.834+535.573+259.569C529.223+254.127+529.965+246.198+525.83+240.942C525.153+240.082+524.345+239.293+523.355+238.599C525.315+243.793+527.693+249.324+530.218+254.279C534.693+263.058+544.168+267.304+552.43+271.386Z" fill="#76800f" stroke-linecap="round" opacity="1" stroke-linejoin="round"/>
<path stroke="#5a7a04" stroke-width="1" d="M552.43+271.386C552.47+270.801+553.036+269.972+552.549+269.631C547.171+265.861+541.736+263.144+536.758+258.879C530.408+253.437+530.4+244.708+526.264+239.452C525.587+238.592+523.899+238.829+522.908+238.135C524.868+243.329+527.693+249.324+530.218+254.279C534.693+263.058+544.168+267.304+552.43+271.386Z" fill="#5a7a04" stroke-linecap="round" opacity="1" stroke-linejoin="round"/>
<path stroke="#344c02" stroke-width="1" d="M551.712+269.514C550.039+265.302+550.039+265.302+548.365+261.09C548.313+262.11+548.313+262.11+548.26+263.13C547.06+262.489+545.301+262.388+544.659+261.207C543.233+258.585+544.003+255.134+542.507+252.549C541.911+251.519+539.938+252.29+539.04+251.496C537.342+249.995+536.41+247.831+535.095+245.998C535.812+245.179+535.812+245.179+536.53+244.36C533.845+240.678+531.615+237.352+526.966+238.744C526.966+255.344+538.844+261.584+551.712+269.514Z" fill="#344c02" stroke-linecap="round" opacity="1" stroke-linejoin="round"/>
<path stroke="#5a7a04" stroke-width="1" d="M512.873+228.486C498.88+222.262+492.115+236.916+504.255+244.537C503.895+245.033+503.895+245.033+503.534+245.53C507.048+247.059+511.343+247.47+514.077+250.117C516.216+252.188+515.977+255.705+516.927+258.499C517.471+254.641+519.618+249.57+516.804+246.817C517.82+246.407+517.82+246.407+518.836+245.998C518.298+244.769+518.298+244.769+517.76+243.541C518.597+244.594+518.597+244.594+519.434+245.647C521.399+240.39+520.423+234.414+519.729+228.858C518.04+228.315+514.385+229.458+512.873+228.486Z" fill="#5a7a04" stroke-linecap="round" opacity="1" stroke-linejoin="round"/>
<path stroke="#a19310" stroke-width="1" d="M519.495+275.033C522.285+267.156+523.199+261.67+523.977+253.368C523.229+260.249+523.41+267.288+521.734+274.01C520.545+278.781+518.326+283.364+515.489+287.414C514.88+288.283+513.066+288.231+512.261+287.531C510.595+286.081+510.109+283.709+509.033+281.798C511.066+281.33+511.066+281.33+513.098+280.862C513.439+273.27+512.324+261.893+516.262+255.342C516.7+258.033+517.64+263.63+517.641+266.355C517.641+269.517+515.907+272.62+516.328+275.755C516.486+276.93+518.54+274.306+519.495+275.033Z" fill="#a19310" stroke-linecap="round" opacity="1" stroke-linejoin="round"/>
<path stroke="#5a7a04" stroke-width="1" d="M518.178+278.608C518.037+277.478+518.021+276.844+517.88+275.714C517.068+275.762+516.355+276.45+515.543+276.498C515.836+271.296+516.104+265.315+517.137+260.203C518.235+254.764+520.66+250.531+521.352+245.028C521.829+241.235+516.519+239.977+520.195+232.843C523.38+237.938+522.679+238.714+523.021+241.903C523.127+240.74+522.986+239.753+523.093+238.59C524.04+239.876+524.414+256.665+522.923+264.917C522.1+269.467+519.765+274.256+518.178+278.608Z" fill="#5a7a04" stroke-linecap="round" opacity="1" stroke-linejoin="round"/>
<path stroke="#344c02" stroke-width="1" d="M455.78+257.745C455.631+256.298+455.031+258.195+454.882+256.749C453.713+257.141+455.391+255.83+454.223+256.221C456.159+245.731+469.885+237.546+470.751+226.92C470.957+224.383+473.898+228.37+473.601+225.842C473.398+224.116+485.269+229.456+484.284+231.139C481.52+238.983+470.893+238.06+469.373+246.376C468.506+251.12+457.361+253.181+455.78+257.745Z" fill="#344c02" stroke-linecap="round" opacity="1" stroke-linejoin="round"/>
<path stroke="#9a9707" stroke-width="1" d="M474.882+227.506C468.671+234.239+456.442+245.894+454.04+254.655C454.632+253.941+455.327+253.144+456.099+252.281C462.193+245.46+473.034+234.485+474.882+227.506Z" fill="#9a9707" stroke-linecap="round" opacity="1" stroke-linejoin="round"/>
<path stroke="#344c02" stroke-width="1" d="M459.437+222.58C457.928+228.782+449.318+231.727+444.237+233.713C447.677+233.643+451.26+232.538+454.556+233.502C456.069+233.945+456.205+236.139+457.029+237.457C461.766+232.683+469.58+229.98+474.246+225.482C467.73+223.844+465.952+224.218+459.437+222.58Z" fill="#344c02" stroke-linecap="round" opacity="1" stroke-linejoin="round"/>
<path stroke="#5a7a04" stroke-width="1" d="M463.246+223.418C460.536+223.028+457.779+221.62+455.116+222.248C453.708+222.58+453.598+224.663+452.839+225.871C448.101+224.331+446.08+230.45+441.209+228.849C441.527+227.421+441.527+227.421+441.846+225.992C439.216+230.905+439.216+230.905+436.586+235.819C440.212+234.883+444.078+234.587+447.465+233.011C453.058+230.41+457.986+226.616+463.246+223.418Z" fill="#5a7a04" stroke-linecap="round" opacity="1" stroke-linejoin="round"/>
<path stroke="#9a9707" stroke-width="1" d="M511.291+249.072C509.792+247.981+505.033+246.621+503.534+245.53C504.012+245.062+504.012+245.062+504.49+244.594C497.18+240.475+497.673+235.868+500.749+228.931C496.686+230.141+492.077+230.56+490.31+230.192C488.437+231.869+489.252+231.598+488.274+233.89C487.962+234.621+486.442+238.436+487.408+240.434C488.279+242.236+491.618+242.234+491.882+242.9C494.273+242.549+495.644+239.797+498.035+239.446C500.763+244.513+503.447+249.189+511.291+249.072Z" fill="#9a9707" stroke-linecap="round" opacity="1" stroke-linejoin="round"/>
<path stroke="#a19310" stroke-width="1" d="M517.999+259.92C518.358+256.995+520.246+255.233+521.112+252.412C522.636+247.445+524.31+246.995+520.869+241.903C520.151+243.775+520.151+243.775+519.434+245.647C518.597+244.594+518.597+244.594+517.76+243.541C518.298+244.769+518.298+244.769+518.836+245.998C517.76+246.466+517.76+246.466+516.684+246.934C517.399+249.365+518.417+252.822+516.804+258.516C515.648+255.123+515.834+250.949+513.337+248.338C511.75+246.677+508.714+247.87+506.403+247.636C508.276+247.831+509.844+248.477+511.052+249.892C513.907+253.239+514.014+257.97+517.999+259.92Z" fill="#a19310" stroke-linecap="round" opacity="1" stroke-linejoin="round"/>
<path stroke="#9a9707" stroke-width="1" d="M454.758+252.666C454.634+255.036+454.634+255.036+454.51+257.406C461.687+253.223+478.678+232.611+486.387+228.71C485.01+233.808+466.533+251.906+464.202+254.772C458.657+252.059+457.746+259.272+452.247+259.686C452.375+257.21+453.743+254.938+454.758+252.666Z" fill="#9a9707" stroke-linecap="round" opacity="1" stroke-linejoin="round"/>
<path stroke="#344c02" stroke-width="1" d="M456.887+222.054C456.863+222.616+454.318+224.772+453.311+225.526C452.709+225.976+451.729+224.958+451.052+225.29C449.74+225.932+449.19+227.693+447.824+228.214C445.766+229.001+443.147+228.688+440.956+228.961C442.467+220.381+449.061+222.254+456.887+222.054Z" fill="#344c02" stroke-linecap="round" opacity="1" stroke-linejoin="round"/>
<path stroke="#823303" stroke-width="1" d="M470.897+72.0261C474.415+58.2185+470.003+71.756+468.745+58.6887C468.68+58.0167+464.868+60.5259+465.355+61.3701C469.616+68.7533+466.949+68.0866+465.278+70.5052C464.447+71.7086+470.593+73.2201+470.897+72.0261Z" fill="#823303" stroke-linecap="round" opacity="1" stroke-linejoin="round"/>
<path stroke="#823303" stroke-width="1" d="M515.382+85.724C515.442+87.837+520.147+84.3036+520.522+81.8631C520.745+80.4158+517.752+83.4281+517.534+81.9801C517.038+78.6857+520.339+72.6542+517.295+74.7264C516.607+75.1946+518.057+76.3113+517.175+76.4814C515.351+76.8332+514.693+75.2239+513.708+76.8323C512.519+78.773+511.61+83.3118+511.739+83.341C513.617+83.7678+514.544+83.3513+515.143+83.3841C515.74+83.4167+515.351+84.6456+515.382+85.724Z" fill="#823303" stroke-linecap="round" opacity="1" stroke-linejoin="round"/>
<path stroke="#823303" stroke-width="1" d="M504.107+61.3271C502.314+60.4002+501.973+61.2614+502.562+67.2747C503.007+71.8255+505.982+73.1884+506.378+71.0377C506.964+67.8557+506.016+62.3144+504.107+61.3271Z" fill="#823303" stroke-linecap="round" opacity="1" stroke-linejoin="round"/>
<path stroke="#823303" stroke-width="1" d="M526.846+69.2182C528.846+64.7049+528.729+59.437+527.324+59.3907C525.142+59.3186+520.996+64.2012+523.379+68.6333C525.142+71.9114+526.17+70.7447+526.846+69.2182Z" fill="#823303" stroke-linecap="round" opacity="1" stroke-linejoin="round"/>
<path stroke="#823303" stroke-width="1" d="M528.168+25.2337C533.132+23.6825+532.15+20.0682+528.023+18.2453C525.92+17.3162+524.96+19.7221+524.94+21.6068C524.914+24.0115+525.827+25.965+528.168+25.2337Z" fill="#823303" stroke-linecap="round" opacity="1" stroke-linejoin="round"/>
<path stroke="#8b5103" stroke-width="1" d="M587.701+43.8344C585.715+45.3791+592.403+51.6379+592.961+49.2162C593.544+46.6853+594.15+45.1205+591.646+43.7174C590.011+42.8014+589.334+42.5645+587.701+43.8344Z" fill="#8b5103" stroke-linecap="round" opacity="1" stroke-linejoin="round"/>
<path stroke="#823303" stroke-width="1" d="M625.363+176.398C625.204+175.645+624.521+177.485+623.809+176.632C622.56+175.137+624.557+174.341+623.689+172.771C623.205+171.895+622.285+171.87+621.657+172.654C620.08+174.623+618.152+176.272+620.342+176.983C621.669+177.414+622.884+177.615+622.015+178.153C620.586+179.039+618.9+178.27+619.863+178.855C622.319+180.346+622.434+179.382+625.004+179.908C625.183+178.153+625.784+178.403+625.363+176.398Z" fill="#823303" stroke-linecap="round" opacity="1" stroke-linejoin="round"/>
<path stroke="#823303" stroke-width="1" d="M561.538+26.3313C561.489+25.0373+562.834+24.7677+562.375+23.8744C561.509+22.1889+559.587+23.941+559.028+25.7463C557.831+29.6072+557.933+35.4269+561.528+33.4442C564.099+32.0269+561.684+30.1699+561.538+26.3313Z" fill="#823303" stroke-linecap="round" opacity="1" stroke-linejoin="round"/>
<path stroke="#823303" stroke-width="1" d="M504.726+54.982C505.504+53.3117+506.296+50.6974+504.514+49.0321C503.532+48.1134+502.289+46.7761+500.661+47.7284C497.683+49.4709+499.974+53.8933+501.028+52.7026C502.957+50.5241+503.603+57.3918+504.726+54.982Z" fill="#823303" stroke-linecap="round" opacity="1" stroke-linejoin="round"/>
<path stroke="#823303" stroke-width="1" d="M516.087+106.189C516.075+106.733+518.803+105.922+519.315+104.902C520.087+103.361+519.227+101.521+519.315+99.7539C519.35+99.0431+521.253+100.033+520.749+99.52C516.238+94.9185+516.186+101.402+516.087+106.189Z" fill="#823303" stroke-linecap="round" opacity="1" stroke-linejoin="round"/>
<path stroke="#823303" stroke-width="1" d="M507.718+96.3611C506.201+93.2221+506.07+93.3121+504.033+90.5157C502.947+89.0255+502.187+94.7697+502.338+95.5421C502.408+95.8955+508.882+98.7694+507.718+96.3611Z" fill="#823303" stroke-linecap="round" opacity="1" stroke-linejoin="round"/>
<path stroke="#823303" stroke-width="1" d="M541.185+79.8816C542.44+76.4303+542.44+76.4303+543.696+72.9789C542.291+73.3643+540.329+72.9732+539.481+74.135C538.408+75.6063+539.103+77.7321+538.914+79.5306C540.049+79.7061+540.049+79.7061+541.185+79.8816Z" fill="#823303" stroke-linecap="round" opacity="1" stroke-linejoin="round"/>
<path stroke="#823303" stroke-width="1" d="M595.707+69.2182C597.707+67.8577+598.803+67.9146+598.208+65.9639C597.513+63.6896+597.126+62.6475+595.104+63.251C593.769+63.6493+593.649+63.9271+593.151+65.203C592.189+67.6683+593.722+70.5683+595.707+69.2182Z" fill="#823303" stroke-linecap="round" opacity="1" stroke-linejoin="round"/>
<path stroke="#823303" stroke-width="1" d="M536.282+138.952C538.013+140.105+537.36+134.824+536.867+132.832C536.633+131.886+534.43+130.258+534.369+131.231C534.137+134.955+531.708+134.296+534.327+136.156C536.185+137.476+535.068+138.144+536.282+138.952Z" fill="#823303" stroke-linecap="round" opacity="1" stroke-linejoin="round"/>
<path stroke="#8b5103" stroke-width="1" d="M584.473+95.3973C586.072+95.6085+586.077+94.2834+586.027+93.4084C585.825+89.8955+577.11+86.3024+582.919+93.4084C583.395+93.9908+583.799+95.3082+584.473+95.3973Z" fill="#8b5103" stroke-linecap="round" opacity="1" stroke-linejoin="round"/>
<path stroke="#8e4d05" stroke-width="1" d="M616.508+114.612C617.491+115.804+618.976+113.052+617.951+111.895C616.097+109.801+615.678+110.569+613.714+108.868C611.878+107.278+614.339+111.98+616.508+114.612Z" fill="#8e4d05" stroke-linecap="round" opacity="1" stroke-linejoin="round"/>
<path stroke="#823303" stroke-width="1" d="M589.111+127.526C593.031+125.911+586.564+116.936+586.704+122.751C586.774+125.674+586.074+126.219+586.888+126.491C588.694+127.094+587.834+128.052+589.111+127.526Z" fill="#823303" stroke-linecap="round" opacity="1" stroke-linejoin="round"/>
<path stroke="#8b5103" stroke-width="1" d="M491.236+25.3775C493.657+25.3838+494.839+26.3209+494.919+28.5225C495.364+30.6214+494.018+30.0458+492.16+31.6867C491.527+30.9709+490.339+27.6934+491.236+25.3775Z" fill="#8b5103" stroke-linecap="round" opacity="1" stroke-linejoin="round"/>
<path stroke="#8b5103" stroke-width="1" d="M529.635+120.232C529.013+116.413+531.463+108.875+530.113+112.511C528.585+116.626+523.843+117.688+527.157+119.693C528.864+120.726+529.889+121.789+529.635+120.232Z" fill="#8b5103" stroke-linecap="round" opacity="1" stroke-linejoin="round"/>
<path stroke="#8b5103" stroke-width="1" d="M564.3+51.5853C565.824+48.7962+566.226+45.1948+561.191+45.5016C559.44+45.6083+560.586+49.1434+561.431+50.6493C562.316+52.2289+563.824+52.4553+564.3+51.5853Z" fill="#8b5103" stroke-linecap="round" opacity="1" stroke-linejoin="round"/>
<path stroke="#8b5103" stroke-width="1" d="M543.231+99.9346C546.973+103.37+544.699+101.594+545.318+99.2006C545.938+96.8071+546.981+97.222+544.536+94.4774C542.845+92.5808+543.517+89.6858+541.699+95.7221C540.683+99.0912+541.234+98.1007+543.231+99.9346Z" fill="#8b5103" stroke-linecap="round" opacity="1" stroke-linejoin="round"/>
<path stroke="#8b5103" stroke-width="1" d="M524.803+91.365C527.713+91.4795+527.741+91.0386+529.454+90.2734C531.447+89.383+529.02+85.8122+527.337+88.036C526.236+89.4909+525.313+84.8797+525.281+86.2172C525.207+89.3852+522.164+91.2612+524.803+91.365Z" fill="#8b5103" stroke-linecap="round" opacity="1" stroke-linejoin="round"/>
<path stroke="#8b5103" stroke-width="1" d="M466.234+37.2786C466.709+39.7384+471.005+34.5544+469.119+32.3331C469.119+29.7417+464.169+31.2138+466.234+37.2786Z" fill="#8b5103" stroke-linecap="round" opacity="1" stroke-linejoin="round"/>
<path stroke="#8b5103" stroke-width="1" d="M552.425+58.2955C553.624+65.3206+548.963+65.009+549.242+58.0032C549.304+56.4401+552.162+56.7526+552.425+58.2955Z" fill="#8b5103" stroke-linecap="round" opacity="1" stroke-linejoin="round"/>
<path stroke="#8b5103" stroke-width="1" d="M601.565+80.0466C598.463+79.5266+603.871+88.3177+603.399+85.9388C602.984+83.8484+603.403+82.4923+605.56+82.2536C606.722+82.125+603.246+80.3284+601.565+80.0466Z" fill="#8b5103" stroke-linecap="round" opacity="1" stroke-linejoin="round"/>
<path stroke="#823303" stroke-width="1" d="M508.366+18.5897C508.495+20.6031+505.833+20.9125+505.833+20.9125C505.833+20.9125+504.34+19.3857+505.989+15.1944C508.031+16.3887+506.987+15.4731+508.366+18.5897Z" fill="#823303" stroke-linecap="round" opacity="1" stroke-linejoin="round"/>
<path stroke="#8b5103" stroke-width="1" d="M593.627+103.587C591.003+103.958+594.634+104.243+595.473+106.704C596.058+108.425+596.751+107.404+597.691+108.501C598.63+109.597+598.161+102.946+593.627+103.587Z" fill="#8b5103" stroke-linecap="round" opacity="1" stroke-linejoin="round"/>
<path stroke="#8b5103" stroke-width="1" d="M555.06+170.302C554.792+171.421+557.251+170.864+557.331+169.717C557.876+161.896+554.243+161.515+554.038+168.987C554.007+170.12+554.474+167.827+555.538+167.26C556.634+166.676+556.938+168.577+556.255+169.6C555.852+170.205+555.213+169.665+555.06+170.302Z" fill="#8b5103" stroke-linecap="round" opacity="1" stroke-linejoin="round"/>
<path stroke="#823303" stroke-width="1" d="M564.848+119.095C567.158+118.261+567.084+118.098+565.199+116.547C563.744+115.349+563.665+115.022+563.444+116.232C562.884+119.293+559.802+117.943+562.713+118.609C564.939+119.118+562.817+119.829+564.848+119.095Z" fill="#823303" stroke-linecap="round" opacity="1" stroke-linejoin="round"/>
<path stroke="#8b5103" stroke-width="1" d="M600.975+178.855C607.171+179.568+607.918+174.475+602.529+173.356C601.995+173.246+600.118+178.757+600.975+178.855Z" fill="#8b5103" stroke-linecap="round" opacity="1" stroke-linejoin="round"/>
<path stroke="#7b3d06" stroke-width="1" d="M578.207+32.2977C576.885+32.7105+578.338+35.2534+579.305+36.2272C580.574+37.5044+582.421+37.5903+582.75+36.5096C584.237+31.6214+583.384+30.6815+578.207+32.2977Z" fill="#7b3d06" stroke-linecap="round" opacity="1" stroke-linejoin="round"/>
<path stroke="#823303" stroke-width="1" d="M606.677+124.295C606.178+124.3+605.422+130.828+607.992+130.847C610.413+130.864+613.539+124.218+606.677+124.295Z" fill="#823303" stroke-linecap="round" opacity="1" stroke-linejoin="round"/>
<path stroke="#8b5103" stroke-width="1" d="M544.539+155.561C550.991+155.919+544.208+145.796+543.942+150.998C543.882+152.169+543.703+153.335+543.703+154.508C543.703+154.93+544.118+155.537+544.539+155.561Z" fill="#8b5103" stroke-linecap="round" opacity="1" stroke-linejoin="round"/>
<path stroke="#823303" stroke-width="1" d="M574.068+126.078C573.977+128.458+573.906+128.769+573.862+131.921C573.842+133.384+576.626+132.453+576.698+130.992C576.799+128.976+576.799+129.114+576.698+126.663C576.644+125.344+574.119+124.759+574.068+126.078Z" fill="#823303" stroke-linecap="round" opacity="1" stroke-linejoin="round"/>
<path stroke="#823303" stroke-width="1" d="M618.541+95.0741C618.592+94.7801+617.923+95.2548+617.943+94.9571C618.089+92.7519+614.456+92.5608+614.715+95.5421C615.176+100.849+617.581+100.588+618.541+95.0741Z" fill="#823303" stroke-linecap="round" opacity="1" stroke-linejoin="round"/>
<path stroke="#8b5103" stroke-width="1" d="M544.15+37.1633C545.507+34.9208+545.327+34.7183+544.986+32.3665C544.816+31.1938+544.597+31.2031+542.715+31.5475C540.361+31.9783+541.195+33.7098+541.125+35.9681C541.075+37.5636+543.318+38.5367+544.15+37.1633Z" fill="#8b5103" stroke-linecap="round" opacity="1" stroke-linejoin="round"/>
<path stroke="#8b5103" stroke-width="1" d="M513.404+53.3783C512.027+55.7778+511.737+56.5115+513.165+58.877C514.006+60.2696+515.863+59.9868+516.445+58.473C516.944+57.1744+516.987+56.4286+516.034+54.1972C515.68+53.3664+514.15+52.0782+513.404+53.3783Z" fill="#8b5103" stroke-linecap="round" opacity="1" stroke-linejoin="round"/>
<path stroke="#8b5103" stroke-width="1" d="M590.992+140.262C590.265+140.254+592.173+140.819+591.517+141.128C589.142+142.248+590.027+146.65+593.144+145.41C596.569+144.047+595.147+140.305+590.992+140.262Z" fill="#8b5103" stroke-linecap="round" opacity="1" stroke-linejoin="round"/>
<path stroke="#8b5103" stroke-width="1" d="M457.866+59.0397C460.009+60.834+459.956+60.4567+459.9+59.3892C459.703+53.9109+461.565+59.8711+460.616+53.3069C460.022+51.8027+457.549+58.7909+457.866+59.0397Z" fill="#8b5103" stroke-linecap="round" opacity="1" stroke-linejoin="round"/>
<path stroke="#8b5103" stroke-width="1" d="M584.389+73.0204C587.165+72.7683+585.518+70.4504+584.149+67.8726C581.566+63.0062+581.382+73.2934+584.389+73.0204Z" fill="#8b5103" stroke-linecap="round" opacity="1" stroke-linejoin="round"/>
<path stroke="#8b5103" stroke-width="1" d="M516.565+130.29C517.433+129.069+518.374+124.766+517.88+124.557C514.913+123.302+514.234+128.101+514.552+129.536C515.322+133.014+515.196+132.215+516.565+130.29Z" fill="#8b5103" stroke-linecap="round" opacity="1" stroke-linejoin="round"/>
<path stroke="#8b5103" stroke-width="1" d="M494.568+43.9473C496.052+40.2499+496.052+42.0383+491.544+38.3709C489.722+36.889+490.552+40.6565+491.34+42.6604C492.119+44.6432+494.061+45.2103+494.568+43.9473Z" fill="#8b5103" stroke-linecap="round" opacity="1" stroke-linejoin="round"/>
<path stroke="#8b5103" stroke-width="1" d="M510.507+32.361C508.979+33.5839+509.676+34.4486+510.626+36.2218C511.036+36.9863+514.107+36.5473+514.213+35.5199C514.941+28.4503+513.566+29.9115+510.507+32.361Z" fill="#8b5103" stroke-linecap="round" opacity="1" stroke-linejoin="round"/>
<path stroke="#8b5103" stroke-width="1" d="M489.277+120.325C489.762+116.166+490.908+117.283+487.364+114.475C485.42+113.087+487.116+116.746+486.766+119.74C486.745+121.258+489.069+121.585+489.277+120.325Z" fill="#8b5103" stroke-linecap="round" opacity="1" stroke-linejoin="round"/>
<path stroke="#823303" stroke-width="1" d="M544.198+118.487C546.5+117.762+547.251+119.345+547.306+117.785C547.407+114.956+549.492+113.364+547.426+113.69C546.119+113.897+543.508+113.023+543.959+114.743C544.51+116.846+542.374+119.062+544.198+118.487Z" fill="#823303" stroke-linecap="round" opacity="1" stroke-linejoin="round"/>
<path stroke="#8b5103" stroke-width="1" d="M554.326+86.9208C553.99+87.4848+553.034+85.6885+552.772+85.6339C550.357+85.1293+552.052+81.8695+552.294+81.89C558.358+82.4031+556.583+83.1365+554.326+86.9208Z" fill="#8b5103" stroke-linecap="round" opacity="1" stroke-linejoin="round"/>
<path stroke="#8b5103" stroke-width="1" d="M490.724+62.8719C492.682+63.0583+488.253+64.2982+491.083+67.4347C492.113+68.5761+488.424+69.906+487.855+68.2537C486.772+65.1104+487.229+62.5391+490.724+62.8719Z" fill="#8b5103" stroke-linecap="round" opacity="1" stroke-linejoin="round"/>
<path stroke="#823303" stroke-width="1" d="M565.222+143.276C562.508+142.287+561.601+143.174+561.874+147.722C561.928+148.621+564.838+149.091+564.982+147.254C565.087+145.93+566.493+143.74+565.222+143.276Z" fill="#823303" stroke-linecap="round" opacity="1" stroke-linejoin="round"/>
<path stroke="#8b5103" stroke-width="1" d="M483.091+57.2847C483.495+58.1954+485.149+57.9972+485.721+56.8168C486.686+54.8252+485.887+51.3595+484.335+51.5681C482.362+51.8331+482.26+55.4121+483.091+57.2847Z" fill="#8b5103" stroke-linecap="round" opacity="1" stroke-linejoin="round"/>
<path stroke="#8b5103" stroke-width="1" d="M476.635+25.9301C477.781+27.1663+479.211+26.124+479.504+25.2281C481.644+18.6917+475.658+24.8761+476.635+25.9301Z" fill="#8b5103" stroke-linecap="round" opacity="1" stroke-linejoin="round"/>
<path d="M416.229+142.171C421.399+142.706+422.54+133.059+417.425+132.578C416.539+132.495+416.519+135.732+416.349+137.843C416.294+138.518+413.323+137.901+413.958+138.545C414.944+139.545+414.685+142.012+416.229+142.171Z" opacity="1" fill="#845605"/>
<path d="M430.846+115.936C429.312+115.638+424.91+115.768+426.723+114.598C427.388+114.169+427.754+113.98+427.919+112.96C428.092+111.886+427.111+110.237+426.604+111.205C424.719+114.805+422.561+114.647+423.376+118.576C423.634+119.824+426.564+119.682+428.038+119.161C429.395+118.681+432.261+116.211+430.846+115.936Z" opacity="1" fill="#845605"/>
<path d="M478.575+107.483C479.75+105.062+477.27+100.687+480.488+100.931C481.043+100.973+480.285+100.308+480.369+100.112C480.522+99.7554+481.683+99.6595+480.847+99.1761C479.739+98.5357+480.189+99.0383+479.651+99.878C479.301+100.425+476.756+102.556+476.304+100.112C476.03+98.627+475.854+99.6761+475.228+100.229C474.645+100.744+474.328+101.365+474.63+101.984C475.002+102.745+475.337+101.139+475.945+101.867C477.34+103.537+473.518+106.217+475.109+106.898C477.414+107.884+476.894+110.949+478.575+107.483Z" opacity="1" fill="#845605"/>
<path d="M453.931+195.203C454.327+193.697+450.923+193.604+451.061+195.905C451.16+197.537+450.475+195.974+450.583+199.883C450.663+202.775+455.563+201.835+454.409+198.011C453.923+196.401+453.027+198.633+453.931+195.203Z" opacity="1" fill="#845605"/>
<path d="M468.596+180.116C469.089+180.217+468.806+179.784+468.596+179.414C468.313+178.917+468.388+178.755+469.074+178.712C469.341+178.695+469.156+179.392+469.313+179.18C470.864+177.083+471.616+172.738+469.672+172.979C468.946+173.069+468.18+173.202+468.596+172.862C469.446+172.167+470.142+171.394+468.954+171.341C467.931+171.296+467.984+169.976+467.4+170.99C466.669+172.261+466.151+173.978+465.607+175.085C465.257+175.799+465.575+176.289+465.248+176.606C464.642+177.195+464.825+175.159+464.441+176.479C464.105+177.633+466.027+179.591+468.596+180.116Z" opacity="1" fill="#845605"/>
<path d="M499.28+178.275C499.203+177.603+498.245+177.729+497.965+178.158C496.834+179.888+498.144+184.931+495.574+185.645C494.229+186.019+494.653+188.346+497.925+189.991C498.711+190.329+498.836+182.181+499.28+178.275Z" opacity="1" fill="#845605"/>
<path d="M500.022+38.3651C500.73+40.4439+501.646+41.7018+502.056+40.9393C503.522+38.2094+504.938+36.4953+504.566+33.1006C504.419+31.7582+501.484+33.5335+500.755+34.6793C499.562+36.5529+499.308+36.2707+500.022+38.3651Z" opacity="1" fill="#972803"/>
<path d="M442.291+147.553C442.877+147.552+442.797+147.123+443.367+146.5C443.686+146.152+443.157+145.985+443.367+145.564C443.639+145.021+443.937+145.744+443.965+145.447C444.158+143.357+444.62+143.669+444.084+142.054C443.854+141.359+443.519+142.234+443.487+141.937C442.923+136.787+441.365+140.396+439.781+141.352C439.2+141.703+440.058+142.41+438.824+142.99C436.23+144.21+438.554+147.561+442.291+147.553Z" opacity="1" fill="#845605"/>
<path d="M526.275+49.7513C527.697+49.1995+528.797+47.0463+528.069+44.2525C527.579+41.3941+527.349+47.1023+526.639+44.056C525.929+41.0096+525.968+41.5479+525.025+42.9637C524.083+44.3796+523.393+46.7078+523.973+48.7803C524.554+50.8529+524.854+50.303+526.275+49.7513Z" opacity="1" fill="#845605"/>
<path d="M431.795+155.251C430.964+154.762+430.057+154.213+429.853+154.762C428.725+157.797+428.07+157.414+429.255+160.732C429.492+161.395+428.559+160.562+428.418+161.548C427.305+169.337+437.23+158.442+431.795+155.251Z" opacity="1" fill="#845605"/>
<path d="M495.935+80.3436C496.055+79.755+496.433+79.0112+497.011+78.8226C497.011+75.7028+496.591+73.3598+496.772+70.165C496.114+70.1065+496.114+70.1065+495.457+70.048C495.365+71.5697+496.004+74.7278+493.783+74.7278C492.827+77.5339+491.995+80.3436+495.935+80.3436Z" opacity="1" fill="#972803"/>
<path d="M449.214+162.997C449.543+164.305+453.728+162.965+452.561+162.295C450.698+161.224+452.425+158.1+452.083+158.083C450.729+158.014+452.841+156.539+451.724+156.328C450.76+156.145+452.563+155.494+451.724+155.392C450.236+155.211+450.309+154.672+449.214+155.275C448.727+155.543+447.361+157.139+447.54+157.381C448.758+159.024+446.556+160.892+447.54+161.359C448.088+161.618+448.881+161.676+449.214+162.997Z" opacity="1" fill="#845605"/>
<path d="M444.496+57.4036C444.676+59.1194+446.43+56.1425+446.195+55.2707C445.514+52.7385+443.257+48.2212+442.105+48.5119C439.759+49.1036+440.563+53.2725+441.18+55.5647C441.503+56.7671+444.366+56.1668+444.496+57.4036Z" opacity="1" fill="#972803"/>
<path d="M559.61+71.3622C559.787+72.0425+560.534+71.6057+561.044+71.3622C561.877+70.9657+561.463+70.7805+562.24+69.7243C562.396+69.512+562.269+70.3544+562.479+70.1923C563.764+69.1999+563.297+66.9214+562.718+65.7465C562.263+64.8219+562.878+66.4444+562.479+66.2144C561.701+65.7651+562.006+64.3743+561.284+64.3425C558.451+64.2179+557.657+66.7221+558.295+69.8413C558.404+70.3749+558.643+69.5396+558.654+69.7243C558.718+70.8364+559.219+69.8573+559.61+71.3622Z" opacity="1" fill="#845605"/>
<path d="M456.746+77.1556C460.872+74.9448+456.064+69.37+455.675+69.4137C455.257+69.4605+454.721+72.2436+454.236+75.1666C454.019+76.4733+457.998+73.7922+457.464+75.2836C457.098+76.3037+456.007+77.5518+456.746+77.1556Z" opacity="1" fill="#845605"/>
<path d="M444.31+182.678C446.712+182.197+446.835+178.346+444.43+177.881C443.166+177.636+442.062+178.246+442.162+177.143C442.179+176.958+442.506+177.327+442.756+176.711C442.826+176.539+442.821+176.399+442.636+176.36C441.196+176.059+439.718+175.962+440.365+177.179C440.691+177.792+440.651+177.571+439.767+178.232C439.537+178.404+440.171+177.352+439.528+177.53C438.045+177.941+437.711+180.621+438.93+181.157C441.247+182.175+440.89+183.362+444.31+182.678Z" opacity="1" fill="#845605"/>
<path d="M472.425+198.481C472.942+197.231+473.317+197.697+473.859+197.077C475.026+195.744+473.874+193.565+473.979+191.813C474.11+189.632+471.537+189.931+472.186+192.164C472.237+192.342+471.927+192.495+471.759+192.579C471.087+192.916+470.783+192.165+470.512+192.866C469.622+195.166+468.477+200.241+471.584+198.945C471.785+198.861+472.304+198.772+472.425+198.481Z" opacity="1" fill="#845605"/>
<path d="M450.227+101.211C455.539+100.801+452.446+95.8254+452.977+92.4368C453.231+90.815+450.526+90.502+450.825+93.6067C450.875+94.1341+449.772+93.1945+449.749+93.7237C449.637+96.3125+447.309+100.117+449.629+99.9245C450.81+99.8266+449.406+101.275+450.227+101.211Z" opacity="1" fill="#845605"/>
<path d="M486.824+90.0595C487.129+89.7611+487.392+83.3927+484.911+82.8058C483.436+82.4567+479.198+89.4508+482.999+89.1235C483.334+89.0947+482.612+87.5815+483.477+87.4856C484.209+87.4045+485.662+88.4866+485.748+89.0066C485.816+89.4135+484.941+89.3956+484.075+89.4745C483.053+89.5676+486.354+90.5209+486.824+90.0595Z" opacity="1" fill="#972803"/>
<path d="M411.128+168.499C412.725+166.674+412.905+160.438+410.411+161.011C408.887+161.361+408.999+161.443+408.14+162.532C406.753+164.289+411.453+165.501+409.574+166.744C408.999+167.124+407.933+166.5+408.14+167.212C408.483+168.394+410.067+169.712+411.128+168.499Z" opacity="1" fill="#845605"/>
<path d="M458.084+117.488C458.272+117.666+458.682+117.488+459.28+117.488C459.34+117.079+459.006+116.518+459.399+116.669C460.352+117.036+461.001+116.726+460.595+116.435C459.877+115.921+460.934+115.846+460.595+115.733C455.711+114.114+465.577+111.714+456.889+110.001C455.687+109.764+459.232+116.62+457.487+115.733C457.079+115.526+457.265+116.113+457.487+116.201C458.487+116.601+456.904+116.37+458.084+117.488Z" opacity="1" fill="#845605"/>
<path d="M572.035+210.456C572.284+210.361+572.202+208.414+573.23+207.414C573.962+206.703+573.15+205.66+572.633+204.489C572.483+204.15+571.31+203.942+570.959+204.489C570.024+205.946+569.624+206.977+569.047+208.776C568.967+209.026+568.089+209.366+568.209+209.52C569.081+210.634+570.305+211.116+572.035+210.456Z" opacity="1" fill="#972803"/>
<path d="M444.095+81.6807C442.726+79.9064+440.122+84.3942+440.827+84.7708C444.728+86.8545+445.426+91.0722+445.41+87.6474C445.401+85.5362+445.446+83.4308+444.095+81.6807Z" opacity="1" fill="#845605"/>
<path d="M539.624+58.9682C540.367+56.5743+541.104+54.6533+539.982+53.7034C537.371+51.4911+536.758+52.1751+536.037+57.0963C535.83+58.5086+538.8+61.6218+539.624+58.9682Z" opacity="1" fill="#972803"/>
<path d="M421.45+183.448C421.551+182.321+421.943+183.998+422.047+183.331C422.554+180.091+423.791+177.805+420.015+178.066C419.748+178.085+420.745+178.212+420.493+178.3C417.574+179.326+419.361+181.736+418.102+183.448C417.671+184.034+421.235+185.826+421.45+183.448Z" opacity="1" fill="#845605"/>
<path d="M525.354+34.9228C524.761+32.5693+527.291+31.4543+526.669+29.658C526.324+28.6601+524.143+26.5935+524.159+27.6691C524.17+28.4464+522.931+33.0234+522.604+34.3378C522.342+35.3957+525.549+35.6941+525.354+34.9228Z" opacity="1" fill="#845605"/>
<path d="M467.824+145.725C467.621+146.275+468.883+146.295+469.02+145.725C469.215+144.909+469.805+144.432+470.335+144.672C470.917+144.937+471.091+135.575+466.987+139.525C466.628+139.87+467.96+139.898+467.465+139.993C464.854+140.49+466.898+142.603+466.987+144.204C467.024+144.857+468.218+144.661+467.824+145.725Z" opacity="1" fill="#845605"/>
<path d="M560.731+92.2498C552.644+91.7146+562.166+104.115+562.166+94.9407C562.166+94.2094+561.472+92.2988+560.731+92.2498Z" opacity="1" fill="#845605"/>
<path d="M495.049+94.8287C494.64+95.0716+495.049+95.2967+495.049+95.7647C494.869+95.8232+494.758+96.0542+494.69+95.8817C493.814+93.6646+491.61+96.6661+491.462+97.1686C491.053+98.56+491.069+99.45+491.462+100.912C491.717+101.862+493.466+101.45+494.451+101.263C495.129+101.135+496.526+93.9507+495.049+94.8287Z" opacity="1" fill="#845605"/>
<path d="M571.95+168.86C572.118+168.656+572.562+170.089+573.323+169C573.933+168.127+574.102+170.303+574.04+167.596C574.034+167.334+574.904+168.222+574.924+167.961C575.326+162.678+574.689+162.448+570.215+162.448C569.714+164.988+570.089+171.131+571.95+168.86Z" opacity="1" fill="#972803"/>
<path d="M593.91+157.827C593.989+156.616+592.725+155.724+591.638+156.54C589.031+158.497+590.709+166.986+593.671+162.507C594.437+161.347+593.822+159.161+593.91+157.827Z" opacity="1" fill="#972803"/>
<path d="M584.588+197.981C584.508+198.893+584.893+198.39+585.545+197.981C585.969+197.714+585.743+197.259+585.903+197.162C588.531+195.563+587.057+197.453+588.414+193.067C588.724+192.066+587.245+191.17+586.262+191.429C584.636+191.856+584.782+195.782+584.588+197.981Z" opacity="1" fill="#972803"/>
<path d="M573.419+105.224C569.3+106.712+573.108+108.623+574.614+111.308C575.017+112.026+577.904+113.394+576.288+111.308C576.174+111.161+576.052+109.974+577.005+110.138C578.34+110.368+578.854+110.136+579.094+110.136C579.153+108.79+578.477+108.487+577.603+107.447C576.081+105.636+576.359+104.162+573.419+105.224Z" opacity="1" fill="#972803"/>
<path d="M431.102+196.363C432.379+197.499+432.38+199.992+431.819+201.511C431.755+201.685+431.542+201.226+431.46+201.394C430.822+202.708+430.722+200.888+430.145+200.575C429.36+200.148+428.903+201.152+428.352+200.458C427.414+199.273+427.945+197.074+428.83+195.544C429.244+194.829+429.701+195.117+431.102+196.363Z" opacity="1" fill="#845605"/>
<path d="M473.522+125.006C474.716+124.952+475.832+126.173+475.913+125.006C476.119+122.025+477.148+119.796+474.997+119.871C474.61+119.884+474.665+119.383+474.665+119.383C474.665+119.383+475.914+118.942+474.717+118.922C473.003+118.895+473.723+118.787+473.282+118.922C471.575+119.448+471.826+121.192+472.087+123.134C472.131+123.462+472.797+122.504+472.865+122.757C473.099+123.634+471.788+123.901+472.446+123.953C473.931+124.071+472.325+125.061+473.522+125.006Z" opacity="1" fill="#845605"/>
<path d="M479.125+161.813C479.257+162.424+480.396+162.255+480.799+161.111C481.327+159.609+481.501+156.677+481.396+156.548C480.928+155.969+481.339+155.169+480.679+155.144C475.861+154.96+478.509+159.609+478.647+160.643C478.729+161.259+478.945+160.98+479.125+161.813Z" opacity="1" fill="#845605"/>
<path d="M588.069+173.762C588.172+177.809+586.391+178.41+587.711+178.559C588.689+178.669+586.761+179.735+588.189+179.963C589.788+180.217+590.347+180.223+590.58+179.729C590.77+179.323+590.339+179.311+590.58+179.027C591.836+177.542+590.076+175.896+589.862+174.581C589.74+173.83+591.708+174.937+591.536+174.347C591.006+172.529+588.015+171.619+588.069+173.762Z" opacity="1" fill="#972803"/>
<path d="M522.628+174.228C529.577+174.342+522.293+164.706+522.031+168.729C521.919+170.442+521.845+172.171+522.031+173.877C522.055+174.103+522.396+174.224+522.628+174.228Z" opacity="1" fill="#845605"/>
<path d="M570.196+189.626C570.341+190.194+570.699+190.271+571.391+189.626C572.388+188.7+572.487+187.384+573.543+188.456C573.819+188.736+574.407+188.873+574.433+188.702C575.175+183.89+575.665+184.053+571.63+184.011C571.208+184.006+571.927+184.756+571.511+184.83C569.175+185.243+569.654+187.505+570.196+189.626Z" opacity="1" fill="#972803"/>
<path d="M542.222+200.892C543.163+201.11+542.901+201.668+543.657+200.892C544.151+200.386+543.692+200.598+544.494+199.371C544.778+198.937+544.892+200.028+545.211+199.371C547.16+195.363+547.043+196.982+545.468+195.223C545.292+195.026+545.245+195.45+544.613+195.042C541.175+192.818+542.434+197.065+541.864+199.839C541.705+200.611+540.913+200.588+542.222+200.892Z" opacity="1" fill="#972803"/>
<path d="M410.522+116.988C410.876+116.625+410.98+116.657+411.12+115.935C411.388+114.554+412.763+112.022+411.359+111.723C410.24+111.485+408.172+110.184+408.251+112.191C408.307+113.623+406.946+114.3+407.534+114.765C407.913+115.065+408.33+114.428+408.609+114.882C408.784+115.166+408.998+115.379+408.729+115.701C408.46+116.023+406.796+115.895+407.534+116.169C408.775+116.631+408.538+119.024+410.522+116.988Z" opacity="1" fill="#972803"/>
<path d="M575.097+140.102C574.5+140.096+575.864+148.433+576.412+146.653C578.104+141.163+581.561+140.162+575.097+140.102Z" opacity="1" fill="#972803"/>
<path d="M454.578+131.577C455.611+132.231+456.664+132.746+456.252+131.577C456.062+131.039+456.037+130.963+456.969+131.109C458.328+131.322+457.11+130.011+457.089+128.418C457.077+127.528+456.661+126.367+455.654+126.312C452.603+126.145+453.454+126.106+453.024+128.886C452.878+129.833+453.9+129.931+454.698+130.992C454.879+131.232+454.322+131.415+454.578+131.577Z" opacity="1" fill="#845605"/>
<path d="M401.333+145.858C404.523+148.014+404.731+144.571+405.039+140.594C405.314+137.038+401.642+141.508+401.094+143.987C400.786+145.378+402.584+143.826+402.648+145.274C402.68+145.992+400.349+145.194+401.333+145.858Z" opacity="1" fill="#972803"/>
<path d="M478.146+32.6263C477.859+33.063+477.421+32.8553+477.325+33.0148C476.867+33.7765+476.607+34.8656+477.205+35.0037C485.626+36.9474+479.9+27.2209+477.684+31.0259C476.888+32.3922+478.24+32.4838+478.146+32.6263Z" opacity="1" fill="#972803"/>
<path d="M569.604+85.8375C567.896+85.3243+570.16+92.48+571.277+91.4533C575.862+87.2388+576.236+87.8311+569.604+85.8375Z" opacity="1" fill="#972803"/>
<path d="M435.118+131.876C435.18+132.143+437.437+132.13+437.509+131.876C441.033+119.406+433.049+122.873+435.118+131.876Z" opacity="1" fill="#845605"/>
<path d="M464.163+50.2695C464.74+50.8952+464.223+51.5451+464.521+51.5565C466.641+51.6369+467.006+52.1114+467.151+48.2806C467.131+47.7267+463.863+44.7393+463.804+46.0577C463.728+47.7724+463.331+49.3684+464.163+50.2695Z" opacity="1" fill="#845605"/>
<path d="M534.452+186.267C535.485+184.84+536.502+182.537+535.408+182.056C533.595+181.258+533.924+181.348+532.3+182.056C530.623+182.786+532.056+182.294+532.061+186.033C532.061+186.566+533.475+187.616+534.452+186.267Z" opacity="1" fill="#972803"/>
<path d="M517.862+113.581C517.888+112.66+516.577+113.084+515.83+113.23C515.082+113.376+515.419+113.071+514.929+113.862C514.79+114.085+514.391+113.67+514.395+113.932C514.525+122.427+517.722+118.539+517.862+113.581Z" opacity="1" fill="#972803"/>
<path d="M435.959+71.371C435.961+71.0255+436.125+69.3239+436.078+67.2762C436.07+66.9341+436.112+66.5962+435.6+66.5742C431.328+66.3907+433.804+71.2026+433.448+71.254C432.72+71.3592+432.02+71.4278+432.731+71.722C434.466+72.4404+435.958+71.5404+435.959+71.371Z" opacity="1" fill="#845605"/>
<path d="M468.273+87.0193C469.344+90.8959+465.959+94.1462+465.284+92.2841C464.625+90.4637+464.727+90.3065+465.165+88.4233C465.53+86.8514+467.712+84.989+468.273+87.0193Z" opacity="1" fill="#845605"/>
<path d="M505.596+105.425C505.507+104.817+502.309+104.889+502.368+105.308C503.325+112.091+506.506+111.675+505.596+105.425Z" opacity="1" fill="#845605"/>
</g>
</g>
</svg>
